<svg xmlns="http://www.w3.org/2000/svg" data-name="Layer 1" viewBox="0 0 64 64"><circle cx="32" cy="32" r="27" fill="#ee2a7b"/><path fill="#262234" d="M48.75,53.16a26.94,26.94,0,0,1-33.5,0L16,50.5A9.12,9.12,0,0,1,24.79,44H39.21A9.12,9.12,0,0,1,48,50.5Z"/><path fill="#ffd2b4" d="M32,15.21C43,15.21,42.1,26,42.1,26c1.62-.17,2.9.49,2.9,2.86s-1,2.86-2.26,3a.28.28,0,0,0-.26.27c-.38,3.69-2.9,6.39-5.38,8.2a8.59,8.59,0,0,1-10.19,0c-2.48-1.81-5-4.52-5.38-8.2a.28.28,0,0,0-.26-.27c-1.27-.13-2.26-.63-2.26-3s1.22-3,2.84-2.86C21.84,26,20.94,15.21,32,15.21Z"/><circle cx="28.04" cy="28.15" r="1.7" fill="#262234"/><circle cx="35.96" cy="28.15" r="1.7" fill="#262234"/><path fill="#611c24" d="M35.87,32.53a1,1,0,0,1,1,1.25,5,5,0,0,1-9.68,0,1,1,0,0,1,1-1.25Z"/><path fill="#be1e2d" d="M34.42,36.91a5,5,0,0,1-4.84,0c.2-1.23,1.21-1.57,2.42-1.57S34.22,35.68,34.42,36.91Z"/><path fill="#fff" d="M34.87,32.53v.95a.37.37,0,0,1-.36.37h-5a.37.37,0,0,1-.36-.37v-.95Z"/><path fill="#ffa517" d="M43.5,22.2C43,15.34,36.87,13,32,13S21,15.34,20.5,22.2a11.32,11.32,0,0,0,.1,3.42A31.59,31.59,0,0,0,21,29.26c.18.78,1.07.75,1.19.05a22.32,22.32,0,0,1,2.52-8.39l.8,2.69a1,1,0,0,0,1,.71H37.58a1,1,0,0,0,1-.71l.8-2.68a22.33,22.33,0,0,1,2.51,8.37c.11.7,1,.73,1.19-.05a30.79,30.79,0,0,0,.34-3.57A11.23,11.23,0,0,0,43.5,22.2Z"/><path fill="#ffd2b4" d="M36,39v5.76a2,2,0,0,1-1.11,1.8h0a6.46,6.46,0,0,1-5.78,0h0A2,2,0,0,1,28,44.76V39Z"/><path fill="#fff" d="M36,44v.76a2,2,0,0,1-1.11,1.8,6.48,6.48,0,0,1-5.78,0A2,2,0,0,1,28,44.76V44H26v.76a4,4,0,0,0,2.22,3.58,8.39,8.39,0,0,0,7.56,0A4,4,0,0,0,38,44.76V44Z" opacity=".2"/><path fill="#262234" d="M36,41.08v1.5a9.16,9.16,0,0,1-8,0v-1.5a9.16,9.16,0,0,0,8,0Z" opacity=".1"/><path fill="#ffa517" d="M23.36 17.55s-9.13-7.69-11.75 5.7a54.25 54.25 0 0 0-1.15 10A1.92 1.92 0 0 0 12.2 35.2h0A1.93 1.93 0 0 0 13.26 35l2.25-1.12a1.92 1.92 0 0 0 1.07-1.81c-.19-4.12-.29-16.86 6-12.72zM40.64 17.55s9.13-7.69 11.75 5.7a54.25 54.25 0 0 1 1.15 10A1.92 1.92 0 0 1 51.8 35.2h0A1.93 1.93 0 0 1 50.74 35l-2.25-1.12a1.92 1.92 0 0 1-1.07-1.81c.19-4.12.29-16.86-6-12.72z"/><rect width="1.67" height="4.09" x="20.84" y="15.71" fill="#611c24" rx=".68" ry=".68" transform="rotate(32.9 21.6 17.526)"/><rect width="1.67" height="4.09" x="41.49" y="15.71" fill="#611c24" rx=".68" ry=".68" transform="rotate(147.53 42.328 17.755)"/></svg>