<svg xmlns="http://www.w3.org/2000/svg" data-name="Layer 1" viewBox="0 0 64 64"><circle cx="32" cy="32" r="27" fill="#262234"/><path fill="#f26522" d="M48.75,53.16a26.94,26.94,0,0,1-33.5,0L16,50.5A9.12,9.12,0,0,1,24.79,44H39.21A9.12,9.12,0,0,1,48,50.5Z"/><path fill="#ffd2b4" d="M32,15.21C43,15.21,42.1,26,42.1,26c1.62-.17,2.9.49,2.9,2.86s-1,2.86-2.26,3a.28.28,0,0,0-.26.27c-.38,3.69-2.9,6.39-5.38,8.2a8.59,8.59,0,0,1-10.19,0c-2.48-1.81-5-4.52-5.38-8.2a.28.28,0,0,0-.26-.27c-1.27-.13-2.26-.63-2.26-3s1.22-3,2.84-2.86C21.84,26,20.94,15.21,32,15.21Z"/><circle cx="28.04" cy="28.15" r="1.7" fill="#262234"/><circle cx="35.96" cy="28.15" r="1.7" fill="#262234"/><path fill="#611c24" d="M35.87,32.53a1,1,0,0,1,1,1.25,5,5,0,0,1-9.68,0,1,1,0,0,1,1-1.25Z"/><path fill="#be1e2d" d="M34.42,36.91a5,5,0,0,1-4.84,0c.2-1.23,1.21-1.57,2.42-1.57S34.22,35.68,34.42,36.91Z"/><path fill="#fff" d="M34.87,32.53v.95a.37.37,0,0,1-.36.37h-5a.37.37,0,0,1-.36-.37v-.95Z"/><path fill="#ffd2b4" d="M36,39v5.76a2,2,0,0,1-1.11,1.8h0a6.46,6.46,0,0,1-5.78,0h0A2,2,0,0,1,28,44.76V39Z"/><path fill="#fff" d="M36,44v.76a2,2,0,0,1-1.11,1.8,6.48,6.48,0,0,1-5.78,0A2,2,0,0,1,28,44.76V44H26v.76a4,4,0,0,0,2.22,3.58,8.39,8.39,0,0,0,7.56,0A4,4,0,0,0,38,44.76V44Z" opacity=".2"/><path fill="#262234" d="M36,41.08v1.5a9.16,9.16,0,0,1-8,0v-1.5a9.16,9.16,0,0,0,8,0Z" opacity=".1"/><path fill="#f26522" d="M18.83 36.18a.94.94 0 0 0-.74-.23l-3.73.49a.94.94 0 0 0-.82.93v3.34a1.67 1.67 0 0 0-.47-.07 1.17 1.17 0 1 0 0 2.3 1.27 1.27 0 0 0 1.38-1.15V38.27l3.78-.49V40.1a1.67 1.67 0 0 0-.47-.07 1.17 1.17 0 1 0 0 2.3 1.27 1.27 0 0 0 1.38-1.15v-4.3A.94.94 0 0 0 18.83 36.18zM52 36.18a.94.94 0 0 0-.74-.23l-3.73.49a.94.94 0 0 0-.82.93v3.34a1.67 1.67 0 0 0-.47-.07 1.17 1.17 0 1 0 1.38 1.15V38.27l3.78-.49V40.1a1.67 1.67 0 0 0-.47-.07 1.17 1.17 0 1 0 1.38 1.15v-4.3A.94.94 0 0 0 52 36.18z"/><path fill="#262234" d="M44.06,25.13v2.63a1.15,1.15,0,0,1-1.31,1.13c-.33,0-.66-.11-.95-.17a1.14,1.14,0,0,1-.92-1.12,17.41,17.41,0,0,0-.53-4.28,13.15,13.15,0,0,1-2.54-.86,15.53,15.53,0,0,0,1,1.83.39.39,0,0,1-.39.58,11.93,11.93,0,0,1-5.27-2,14.47,14.47,0,0,0,.5,1.43.38.38,0,0,1-.49.5,12.28,12.28,0,0,1-4.55-2.67,17.07,17.07,0,0,0,.5,1.75.39.39,0,0,1-.52.48,12.62,12.62,0,0,1-4.28-2.77h0a15,15,0,0,0-1.17,6,1.14,1.14,0,0,1-.92,1.11c-.29.06-.61.12-.94.17a1.15,1.15,0,0,1-1.31-1.13V25.13a12.06,12.06,0,1,1,24.12,0Z"/><path fill="#f26522" d="M18.17,25.37h2.46a0,0,0,0,1,0,0v7.39a0,0,0,0,1,0,0H18.17a1.92,1.92,0,0,1-1.92-1.92V27.29A1.92,1.92,0,0,1,18.17,25.37Z"/><path fill="#ffa517" d="M20.19,25.37h1.13a.31.31,0,0,1,.31.31v6.77a.31.31,0,0,1-.31.31H20.19a0,0,0,0,1,0,0V25.37A0,0,0,0,1,20.19,25.37Z"/><path fill="#f26522" d="M45.29,25.37h2.46a0,0,0,0,1,0,0v7.39a0,0,0,0,1,0,0H45.29a1.92,1.92,0,0,1-1.92-1.92V27.29A1.92,1.92,0,0,1,45.29,25.37Z" transform="rotate(-180 45.56 29.07)"/><path fill="#ffa517" d="M42.37,25.37H43.5a.31.31,0,0,1,.31.31v6.77a.31.31,0,0,1-.31.31H42.37a0,0,0,0,1,0,0V25.37A0,0,0,0,1,42.37,25.37Z" transform="rotate(-180 43.09 29.07)"/><path fill="#f26522" d="M45.31,29.41h-1.5V25.13a11.81,11.81,0,1,0-23.63,0v4.29h-1.5V25.13a13.31,13.31,0,1,1,26.63,0Z"/></svg>