<svg xmlns="http://www.w3.org/2000/svg" data-name="Layer 1" viewBox="0 0 64 64"><circle cx="32" cy="32" r="27" fill="#27aae1"/><path fill="#1c3960" d="M48.75,53.16a26.94,26.94,0,0,1-33.5,0L16,50.5A9.12,9.12,0,0,1,24.79,44H39.21A9.12,9.12,0,0,1,48,50.5Z"/><path fill="#ffd2b4" d="M36,39v5.76a2,2,0,0,1-1.11,1.8h0a6.46,6.46,0,0,1-5.78,0h0A2,2,0,0,1,28,44.76V39Z"/><path fill="#ffd2b4" d="M32,15.21C43.45,15.21,42.47,26,42.47,26c1.68-.17,3,.49,3,2.86s-1,2.86-2.35,3a.29.29,0,0,0-.27.27c-.39,3.69-3,6.39-5.58,8.2a9.16,9.16,0,0,1-10.56,0c-2.57-1.81-5.19-4.52-5.58-8.2a.29.29,0,0,0-.27-.27c-1.31-.13-2.35-.63-2.35-3s1.27-3,2.94-2.86C21.47,26,20.54,15.21,32,15.21Z"/><path fill="#262234" d="M36,41.08v1.5a9.16,9.16,0,0,1-8,0v-1.5a9.16,9.16,0,0,0,8,0Z" opacity=".1"/><circle cx="28.04" cy="28.15" r="1.7"/><circle cx="35.96" cy="28.15" r="1.7"/><path fill="#611c24" d="M35.87,32.53a1,1,0,0,1,1,1.25,5,5,0,0,1-9.68,0,1,1,0,0,1,1-1.25Z"/><path fill="#be1e2d" d="M34.42,36.91a5,5,0,0,1-4.84,0c.2-1.23,1.21-1.57,2.42-1.57S34.22,35.68,34.42,36.91Z"/><path fill="#fff" d="M34.87,32.53v.95a.37.37,0,0,1-.36.37h-5a.37.37,0,0,1-.36-.37v-.95Z"/><path d="M32,13.63c-8.83,0-11.31,6.71-11.31,12.72A9.56,9.56,0,0,0,21,28.47c.18.72,2.07.69,2.19,0a16.75,16.75,0,0,1,1.11-6.85A1,1,0,0,1,25.34,21c2.24.33,9.12,1.18,13.27.12a1,1,0,0,1,1.2.6,16.94,16.94,0,0,1,1.06,6.75c.11.64,2,.67,2.19,0a9.56,9.56,0,0,0,.26-2.12C43.31,20.33,40.84,13.63,32,13.63Z"/><path fill="#1c3960" d="M45.25,15.6c0-3.25-5.93-5.88-13.25-5.88S18.75,12.35,18.75,15.6c0,1.22.84,2.36,2.27,3.3v2.28c0,1.38,4.91,4.47,11,4.47s11-3.08,11-4.47V18.89C44.41,18,45.25,16.82,45.25,15.6Z"/><path fill="#132539" d="M43,18.89h0a75.91,75.91,0,0,0-22,0h0v2.3l6.56.38a75.91,75.91,0,0,0,8.83,0L43,21.19Z"/><path fill="#ffa517" d="M37.81,13H34.46a2.66,2.66,0,0,1-1.88-.78h0a.82.82,0,0,0-1.17,0h0a2.66,2.66,0,0,1-1.88.78H26.19a.53.53,0,0,0,0,1.05h1.05a.53.53,0,0,1,.53.53.53.53,0,0,0,.53.53h1.05a.53.53,0,0,1,.53.55.51.51,0,0,0,.53.5h3.2a.51.51,0,0,0,.53-.5.53.53,0,0,1,.53-.55H35.7a.53.53,0,0,0,.53-.53.53.53,0,0,1,.53-.53h1.05a.53.53,0,0,0,0-1.05Z"/><path fill="#e4971f" d="M32.67,14.47l.58-.5a.08.08,0,0,0,0-.15l-.76-.06a.08.08,0,0,1-.07-.05L32.08,13a.08.08,0,0,0-.15,0l-.29.71a.08.08,0,0,1-.07.05l-.76.06a.08.08,0,0,0,0,.15l.58.5a.08.08,0,0,1,0,.08l-.18.75a.08.08,0,0,0,.12.09L32,15A.08.08,0,0,1,32,15l.65.4a.08.08,0,0,0,.12-.09l-.18-.75A.08.08,0,0,1,32.67,14.47Z"/><path fill="#ffa517" d="M43.48,52.45H41.8a1.33,1.33,0,0,1-.94-.39h0a.41.41,0,0,0-.58,0h0a1.33,1.33,0,0,1-.94.39H37.67a.26.26,0,0,0,0,.53h.53a.26.26,0,0,1,.26.26.26.26,0,0,0,.26.26h.53a.26.26,0,0,1,.26.27.26.26,0,0,0,.26.25h1.6a.26.26,0,0,0,.26-.25.26.26,0,0,1,.26-.27h.53a.26.26,0,0,0,.26-.26A.26.26,0,0,1,43,53h.53a.26.26,0,0,0,0-.53Z"/><path fill="#e4971f" d="M40.91,53.19l.29-.25a0,0,0,0,0,0-.07l-.38,0a0,0,0,0,1,0,0l-.15-.35a0,0,0,0,0-.08,0l-.15.35a0,0,0,0,1,0,0l-.38,0a0,0,0,0,0,0,.07l.29.25a0,0,0,0,1,0,0l-.09.37a0,0,0,0,0,.06,0l.33-.2h0l.33.2a0,0,0,0,0,.06,0l-.09-.37A0,0,0,0,1,40.91,53.19Z"/><path fill="#f1f2f2" d="M35.55,48.06l-.91,10.81a26.77,26.77,0,0,1-5.27,0L28.29,48.06Z"/><path fill="#132539" d="M33.12,50.35H30.88a1,1,0,0,1-1-.72l-.79-2.71h5.73l-.79,2.71A1,1,0,0,1,33.12,50.35Z"/><path fill="#132539" d="M34.34,58.89c-.39,0-.79.07-1.19.08h0q-.57,0-1.14,0c-.38,0-.77,0-1.15,0s-.8,0-1.19-.08l1.67-9.08h1.34Z"/><path fill="#e6e7e8" d="M32 46.92l-3.29 2.7a.5.5 0 0 1-.8-.27L26.58 44 28 41.81zM32 46.92l3.29 2.7a.5.5 0 0 0 .8-.27L37.42 44 36 41.81z"/><path fill="#ffa517" d="M17.46,47.25l.85,1.48a.47.47,0,0,0,.75.09,10.45,10.45,0,0,1,4.41-2.55.47.47,0,0,0,.29-.69l-.85-1.48a.48.48,0,0,0-.53-.23,10.45,10.45,0,0,0-4.85,2.8A.48.48,0,0,0,17.46,47.25Z"/><path fill="#e4971f" d="M19.51 47.67h-.06l-1-.22a.25.25 0 0 1-.17-.14.25.25 0 0 1 0-.22l.45-.83a.25.25 0 1 1 .44.24l-.29.54.63.15a.25.25 0 0 1-.06.49zM20.89 46.77h-.06l-1-.22a.25.25 0 0 1-.17-.14.25.25 0 0 1 0-.22l.45-.83a.25.25 0 1 1 .44.24l-.29.54.63.15a.25.25 0 0 1-.06.49zM22.36 46.07H22.3l-1-.22a.25.25 0 0 1-.17-.14.25.25 0 0 1 0-.22l.45-.83a.25.25 0 0 1 .44.24l-.29.54.63.15a.25.25 0 0 1-.06.49z"/><path fill="#ffa517" d="M46.54,47.25l-.85,1.48a.47.47,0,0,1-.75.09,10.45,10.45,0,0,0-4.41-2.55.47.47,0,0,1-.29-.69l.85-1.48a.48.48,0,0,1,.53-.23,10.45,10.45,0,0,1,4.85,2.8A.48.48,0,0,1,46.54,47.25Z"/><path fill="#e4971f" d="M44.49 47.67a.25.25 0 0 1-.06-.49l.63-.15-.29-.54a.25.25 0 1 1 .44-.24l.45.83a.25.25 0 0 1 0 .22.25.25 0 0 1-.17.14l-1 .22zM43.11 46.77a.25.25 0 0 1-.06-.49l.63-.15-.29-.54a.25.25 0 0 1 .44-.24l.45.83a.25.25 0 0 1 0 .22.25.25 0 0 1-.17.14l-1 .22zM41.64 46.07a.25.25 0 0 1-.06-.49l.63-.15-.29-.54a.25.25 0 0 1 .44-.24l.45.83a.25.25 0 0 1 0 .22.25.25 0 0 1-.17.14l-1 .22z"/></svg>