<svg xmlns="http://www.w3.org/2000/svg" data-name="Layer 1" viewBox="0 0 64 64"><circle cx="32" cy="32" r="27" fill="#be1e2d"/><path fill="#2a292a" d="M48.75,53.16a26.94,26.94,0,0,1-33.5,0L16,50.5A9.12,9.12,0,0,1,24.79,44H39.21A9.12,9.12,0,0,1,48,50.5Z"/><path fill="#ffd2b4" d="M36,39v5.76a2,2,0,0,1-1.11,1.8h0a6.46,6.46,0,0,1-5.78,0h0A2,2,0,0,1,28,44.76V39Z"/><path fill="#ffd2b4" d="M32,15.21C43.45,15.21,42.47,26,42.47,26c1.68-.17,3,.49,3,2.86s-1,2.86-2.35,3a.29.29,0,0,0-.27.27c-.39,3.69-3,6.39-5.58,8.2a9.16,9.16,0,0,1-10.56,0c-2.57-1.81-5.19-4.52-5.58-8.2a.29.29,0,0,0-.27-.27c-1.31-.13-2.35-.63-2.35-3s1.27-3,2.94-2.86C21.47,26,20.54,15.21,32,15.21Z"/><path fill="#262234" d="M36,41.08v1.5a9.16,9.16,0,0,1-8,0v-1.5a9.16,9.16,0,0,0,8,0Z" opacity=".1"/><path fill="#e6e7e8" d="M38.15,47,34.78,58.86C33.87,59,32.94,59,32,59s-1.87,0-2.78-.14L25.85,47Z"/><circle cx="32" cy="50.26" r=".8" fill="#2a292a"/><circle cx="32" cy="53.11" r=".8" fill="#2a292a"/><circle cx="32" cy="55.96" r=".8" fill="#2a292a"/><path fill="#3b3c3d" d="M30.44 59a25.25 25.25 0 0 1-3.71-.47L22.65 52l2.47-1.55-2-.89L24.71 44H26.1zM41.35 52l-4.08 6.43a25.25 25.25 0 0 1-3.71.47L37.9 44h1.39l1.63 5.61-2 .89z"/><polygon fill="#bcbec0" points="27.99 42.16 32 46.53 27.59 49.06 26.09 44 27.99 42.16"/><polygon fill="#bcbec0" points="35.99 42.16 32 46.53 36.43 49.06 37.91 44 35.99 42.16"/><path fill="#2a292a" d="M35.14 45.07L32.68 46.3a1 1 0 0 0-1.35 0l-2.46-1.23a.63.63 0 0 0-.91.56v2.64a.63.63 0 0 0 .91.56l2.44-1.22a.93.93 0 0 0 1.39 0l2.44 1.22a.63.63 0 0 0 .91-.56V45.63A.63.63 0 0 0 35.14 45.07zM43.5 20.2a10.52 10.52 0 0 0-.44-2.44 11 11 0 0 0 .18-4.11.75.75 0 0 0-1-.54c-.24.09-.5.17-.76.25a4.69 4.69 0 0 0 0-1.13.76.76 0 0 0-1-.6 30.85 30.85 0 0 1-8 1.41H32c-6.09 0-11 .31-11.49 7.16a30.25 30.25 0 0 0 .14 5.53A21.54 21.54 0 0 0 21 28.47c.18.72 2.07.69 2.19 0s-.33-4.16 1.37-7.38A20.51 20.51 0 0 0 32 22.35a20.53 20.53 0 0 0 7.48-1.21c1.7 3.22 1.28 6.83 1.37 7.38s2 .67 2.19 0A19.17 19.17 0 0 0 43.32 26 30.77 30.77 0 0 0 43.5 20.2z"/><path fill="#2a292a" d="M35.67 29.86a2.47 2.47 0 0 1-2.4-2 .75.75 0 0 1 1.47-.3 1 1 0 0 0 1.87 0 .75.75 0 0 1 1.47.3A2.47 2.47 0 0 1 35.67 29.86zM28.33 29.86a2.47 2.47 0 0 1-2.4-2 .75.75 0 0 1 1.47-.3 1 1 0 0 0 1.87 0 .75.75 0 0 1 1.47.3A2.47 2.47 0 0 1 28.33 29.86z"/><ellipse cx="32" cy="34.77" fill="#611c24" rx="2.51" ry="3.08"/><path fill="#be1e2d" d="M34.14,36.39a2.29,2.29,0,0,1-4.27,0A3,3,0,0,1,32,35.75,3,3,0,0,1,34.14,36.39Z"/><circle cx="38.5" cy="37.1" r="2.85" fill="#2a292a"/><path fill="#2a292a" d="M53.44,48.4a22.65,22.65,0,0,1-1.75,2.06l-3.51-8.73a1.76,1.76,0,0,0-1.14-1l-7-1.95a.58.58,0,0,1-.4-.71l.33-1.2a.58.58,0,0,1,.72-.4l7,1.95a4.12,4.12,0,0,1,2.72,2.44Z"/><path fill="#3b3c3d" d="M39.61,38l.33-1.2a.59.59,0,0,1,.56-.42.47.47,0,0,1,.16,0l.65.18a2.72,2.72,0,0,0-.15-.56l-.37-.1a.93.93,0,0,0-.29,0,1.08,1.08,0,0,0-1,.79l-.33,1.19a1.07,1.07,0,0,0,.1.82,1,1,0,0,0,.65.51l.37.1a2.26,2.26,0,0,0,.42-.4L40,38.76A.58.58,0,0,1,39.61,38Z"/><path fill="#2a292a" d="M18.66 35.73a.94.94 0 0 0-.74-.23L14.19 36a.94.94 0 0 0-.82.93v3.34a1.67 1.67 0 0 0-.47-.07 1.17 1.17 0 1 0 0 2.3 1.27 1.27 0 0 0 1.38-1.15V37.82l3.78-.49v2.32a1.67 1.67 0 0 0-.47-.07 1.17 1.17 0 1 0 0 2.3A1.27 1.27 0 0 0 19 40.74v-4.3A.94.94 0 0 0 18.66 35.73zM15.74 25.16a.94.94 0 0 0-.74-.23l-3.73.49a.94.94 0 0 0-.82.93v3.34a1.67 1.67 0 0 0-.47-.07 1.17 1.17 0 1 0 0 2.3 1.27 1.27 0 0 0 1.38-1.15V27.25l3.78-.49v2.32a1.67 1.67 0 0 0-.47-.07 1.17 1.17 0 1 0 0 2.3 1.27 1.27 0 0 0 1.38-1.15v-4.3A.94.94 0 0 0 15.74 25.16z"/></svg>