<svg xmlns="http://www.w3.org/2000/svg" data-name="Layer 1" viewBox="0 0 64 64"><circle cx="32" cy="32" r="27" fill="#2e3192"/><path fill="#ffd2b4" d="M48.75,53.16a26.94,26.94,0,0,1-33.5,0L16,50.5A9.12,9.12,0,0,1,24.79,44H39.21A9.12,9.12,0,0,1,48,50.5Z"/><path fill="#be1e2d" d="M27.67 34.68a3.88 3.88 0 0 0-2.31.77 3.9 3.9 0 0 0-.93-.76 3.88 3.88 0 0 0 1.2-5.63A3.91 3.91 0 1 0 20 28.27a3.82 3.82 0 0 0-1.39 3.94 3.89 3.89 0 0 0 .28 7.5 3.88 3.88 0 0 0 5.83 1.47 3.91 3.91 0 1 0 2.91-6.51zM48.06 35.92a3.9 3.9 0 0 0-2.72-3.71A3.82 3.82 0 0 0 44 28.27a3.91 3.91 0 1 0-5.59.79 3.88 3.88 0 0 0 1.2 5.63 3.9 3.9 0 0 0-.93.76 3.91 3.91 0 1 0 .6 5.74 3.88 3.88 0 0 0 5.83-1.47A3.91 3.91 0 0 0 48.06 35.92z"/><path fill="#ffd2b4" d="M36,39.94v5.47a.94.94,0,0,1-.52.84l-3.06,1.53a.94.94,0,0,1-.84,0l-3.06-1.53a.94.94,0,0,1-.52-.84V39.94a.94.94,0,0,1,.94-.94h6.11A.94.94,0,0,1,36,39.94Z"/><path fill="#ffd2b4" d="M32,15.21C43,15.21,42.1,26,42.1,26c1.62-.17,2.9.49,2.9,2.86s-1,2.86-2.26,3a.28.28,0,0,0-.26.27c-.38,3.69-2.9,6.39-5.38,8.2a8.59,8.59,0,0,1-10.19,0c-2.48-1.81-5-4.52-5.38-8.2a.28.28,0,0,0-.26-.27c-1.27-.13-2.26-.63-2.26-3s1.22-3,2.84-2.86C21.84,26,20.94,15.21,32,15.21Z"/><path fill="#262234" d="M36,41v2a8.5,8.5,0,0,1-8,0V41a8.5,8.5,0,0,0,8,0Z" opacity=".1"/><circle cx="28.04" cy="28.15" r="1.7" fill="#2a292a"/><circle cx="35.96" cy="28.15" r="1.7" fill="#2a292a"/><path fill="#611c24" d="M35.87,32.53a1,1,0,0,1,1,1.25,5,5,0,0,1-9.68,0,1,1,0,0,1,1-1.25Z"/><path fill="#be1e2d" d="M34.42,36.91a5,5,0,0,1-4.84,0c.2-1.23,1.21-1.57,2.42-1.57S34.22,35.68,34.42,36.91Z"/><path fill="#fff" d="M34.87,32.53v.95a.37.37,0,0,1-.36.37h-5a.37.37,0,0,1-.36-.37v-.95Z"/><path fill="#be1e2d" d="M43.5,22.2C43,15.34,36.87,13,32,13S21,15.34,20.5,22.2a11.32,11.32,0,0,0,.1,3.42A31.62,31.62,0,0,0,21,29.26c.18.78,1.07.75,1.19.05a23.59,23.59,0,0,1,2-7.34,3.28,3.28,0,0,0,3.36.7A3.34,3.34,0,0,0,32,23a3.34,3.34,0,0,0,4.54-.37A3.28,3.28,0,0,0,39.89,22a23.6,23.6,0,0,1,2,7.33c.11.7,1,.73,1.19-.05a30.77,30.77,0,0,0,.34-3.57A11.23,11.23,0,0,0,43.5,22.2Z"/><path fill="#27aae1" d="M53.2,48.7a27,27,0,0,1-42.4,0,3.88,3.88,0,0,0,2.12-1.17,2.2,2.2,0,0,1,1.57-.68,2.16,2.16,0,0,1,1.58.68,3.79,3.79,0,0,0,5.6,0,2.21,2.21,0,0,1,1.58-.7,2.18,2.18,0,0,1,1.58.7,3.79,3.79,0,0,0,5.59,0,2.21,2.21,0,0,1,1.58-.7,2.18,2.18,0,0,1,1.58.7,3.8,3.8,0,0,0,5.6,0,2.12,2.12,0,0,1,3.15,0,3.8,3.8,0,0,0,5.6,0,2.17,2.17,0,0,1,1.57-.7h0a2.17,2.17,0,0,1,1.57.7A3.89,3.89,0,0,0,53.2,48.7Z"/></svg>