<svg xmlns="http://www.w3.org/2000/svg" data-name="Layer 1" viewBox="0 0 64 64"><circle cx="32" cy="32" r="27" fill="#f26522"/><path fill="#262234" d="M45.37,39l-2-8.82a13.4,13.4,0,0,0-11.25-12.4h-.21a13.4,13.4,0,0,0-11.25,12.4l-2,8.82a2.07,2.07,0,0,0,2.24,2.53L32,40.39l11.14,1.15A2.07,2.07,0,0,0,45.37,39Z"/><path fill="#5a143c" d="M48.75,53.16a26.94,26.94,0,0,1-33.5,0L16,50.5A9.1,9.1,0,0,1,23,44.19a8.27,8.27,0,0,1,1.8-.19H39.21a8.27,8.27,0,0,1,1.8.19A9.1,9.1,0,0,1,48,50.5Z"/><path fill="#ffd2b4" d="M36,39.94V48l-4,2-4-2V39.94a.94.94,0,0,1,.94-.94h6.11A.94.94,0,0,1,36,39.94Z"/><path fill="#ffd2b4" d="M32,15.21C43,15.21,42.1,26,42.1,26c1.62-.17,2.9.49,2.9,2.86s-1,2.86-2.26,3a.28.28,0,0,0-.26.27c-.38,3.69-2.9,6.39-5.38,8.2a8.59,8.59,0,0,1-10.19,0c-2.48-1.81-5-4.52-5.38-8.2a.28.28,0,0,0-.26-.27c-1.27-.13-2.26-.63-2.26-3s1.22-3,2.84-2.86C21.84,26,20.94,15.21,32,15.21Z"/><circle cx="28.04" cy="28.15" r="1.7" fill="#262234"/><circle cx="35.96" cy="28.15" r="1.7" fill="#262234"/><path fill="#611c24" d="M35.87,32.53a1,1,0,0,1,1,1.25,5,5,0,0,1-9.68,0,1,1,0,0,1,1-1.25Z"/><path fill="#be1e2d" d="M34.42,36.91a5,5,0,0,1-4.84,0c.2-1.23,1.21-1.57,2.42-1.57S34.22,35.68,34.42,36.91Z"/><path fill="#fff" d="M34.87,32.53v.95a.37.37,0,0,1-.36.37h-5a.37.37,0,0,1-.36-.37v-.95Z"/><path fill="#ffd2b4" d="M39,44a7.06,7.06,0,0,1-14,0Z"/><path fill="#fff" d="M39.21,44H39a7.06,7.06,0,0,1-14,0h-.19a8.27,8.27,0,0,0-1.8.19v0a9.06,9.06,0,0,0,18,0v0A8.27,8.27,0,0,0,39.21,44Z" opacity=".3"/><path fill="#262234" d="M36,41v2a8.5,8.5,0,0,1-8,0V41a8.5,8.5,0,0,0,8,0Z" opacity=".1"/><path fill="#262234" d="M43.5,22.2C43,15.34,36.87,13,32,13S21,15.34,20.5,22.2a11.32,11.32,0,0,0,.1,3.42A31.59,31.59,0,0,0,21,29.26c.18.78,1.07.75,1.19.05a27.06,27.06,0,0,1,1-4.77c6.06-.52,9.47-2.32,11.19-3.66a21.5,21.5,0,0,0,6.65,3.82,27.29,27.29,0,0,1,.91,4.61c.11.7,1,.73,1.19-.05a30.79,30.79,0,0,0,.34-3.57A11.23,11.23,0,0,0,43.5,22.2Z"/></svg>